<svg xmlns="http://www.w3.org/2000/svg" xmlns:xlink="http://www.w3.org/1999/xlink" width="500" zoomAndPan="magnify" viewBox="0 0 375 187.499995" height="250" preserveAspectRatio="xMidYMid meet" version="1.0"><defs><g/></defs><path fill="#ffffff" d="M 79.984375 48.285156 C 79.8125 48.9375 79.144531 49.3125 78.492188 49.144531 L 60.601562 44.367188 C 59.949219 44.195312 59.5625 43.53125 59.738281 42.878906 C 59.914062 42.234375 60.582031 41.851562 61.230469 42.023438 L 79.121094 46.804688 C 79.773438 46.972656 80.160156 47.640625 79.984375 48.285156 Z M 43.605469 143.265625 C 41.597656 142.726562 39.535156 143.917969 38.996094 145.917969 C 38.457031 147.921875 39.644531 149.976562 41.65625 150.511719 C 43.664062 151.050781 45.726562 149.859375 46.261719 147.863281 C 46.804688 145.863281 45.613281 143.800781 43.605469 143.265625 Z M 81.558594 154.234375 L 106.875 60.046875 C 108.753906 53.058594 104.582031 45.839844 97.566406 43.96875 L 46.679688 30.378906 C 39.667969 28.5 32.433594 32.671875 30.550781 39.664062 L 5.230469 133.851562 C 3.355469 140.84375 7.53125 148.046875 14.546875 149.925781 L 65.425781 163.515625 C 72.445312 165.386719 79.679688 161.222656 81.558594 154.234375 Z M 96.589844 47.59375 C 101.601562 48.925781 104.585938 54.078125 103.242188 59.070312 L 77.921875 153.261719 C 76.578125 158.25 71.414062 161.226562 66.402344 159.890625 L 15.519531 146.304688 C 10.511719 144.964844 7.527344 139.8125 8.867188 134.820312 L 34.1875 40.632812 C 35.53125 35.636719 40.699219 32.664062 45.710938 34.003906 Z M 96.589844 47.59375 " fill-opacity="1" fill-rule="nonzero"/><path fill="#ffffff" d="M 82.824219 127.773438 C 82.71875 128.175781 82.371094 128.285156 82.050781 128.023438 L 25.96875 81.082031 C 25.648438 80.816406 25.480469 80.273438 25.585938 79.875 L 30.066406 63.214844 C 30.179688 62.816406 30.523438 62.703125 30.839844 62.972656 L 86.921875 109.90625 C 87.242188 110.171875 87.414062 110.71875 87.304688 111.113281 Z M 82.824219 127.773438 " fill-opacity="1" fill-rule="nonzero"/><path fill="#489cd8" d="M 25.199219 83.921875 C 24.886719 83.65625 24.535156 83.761719 24.433594 84.164062 L 19.953125 100.828125 C 19.847656 101.226562 20.019531 101.773438 20.332031 102.039062 L 73.339844 146.394531 C 73.65625 146.660156 73.589844 146.789062 73.1875 146.683594 L 12.746094 130.535156 C 12.34375 130.429688 11.929688 130.671875 11.824219 131.066406 L 11.773438 131.257812 C 11.667969 131.652344 11.90625 132.070312 12.304688 132.171875 L 76.273438 149.257812 C 76.671875 149.363281 77.085938 149.125 77.191406 148.730469 L 77.238281 148.539062 C 77.347656 148.140625 77.523438 147.488281 77.628906 147.089844 L 81.667969 132.0625 C 81.773438 131.664062 81.609375 131.117188 81.285156 130.855469 Z M 25.199219 83.921875 " fill-opacity="1" fill-rule="nonzero"/><path fill="#ffde59" d="M 101.117188 59.734375 C 101.21875 59.335938 100.984375 58.921875 100.582031 58.816406 L 36.617188 41.734375 C 36.21875 41.625 35.804688 41.863281 35.699219 42.265625 L 35.648438 42.449219 C 35.539062 42.847656 35.363281 43.5 35.257812 43.894531 L 31.21875 58.921875 C 31.109375 59.320312 31.277344 59.867188 31.59375 60.128906 L 87.6875 107.070312 C 88.003906 107.335938 88.347656 107.222656 88.453125 106.824219 L 92.929688 90.164062 C 93.039062 89.765625 92.871094 89.21875 92.546875 88.957031 L 39.554688 44.601562 C 39.234375 44.339844 39.304688 44.203125 39.703125 44.3125 L 100.144531 60.457031 C 100.546875 60.5625 100.960938 60.324219 101.0625 59.921875 Z M 101.117188 59.734375 " fill-opacity="1" fill-rule="nonzero"/><g fill="#ffffff" fill-opacity="1"><g transform="translate(133.708998, 114.650193)"><g><path d="M 29.933594 -41.867188 L -0.347656 -41.867188 L -0.347656 -33.703125 L 10.257812 -33.703125 L 10.257812 0 L 19.398438 0 L 19.398438 -33.703125 L 29.933594 -33.703125 Z M 29.933594 -41.867188 "/></g></g></g><g fill="#ffffff" fill-opacity="1"><g transform="translate(162.174937, 114.650193)"><g><path d="M 21.28125 0.558594 C 31.191406 0.558594 38.726562 -5.511719 38.726562 -13.398438 L 38.726562 -41.867188 L 29.515625 -41.867188 L 29.515625 -15.140625 C 29.515625 -10.886719 25.957031 -7.605469 21.28125 -7.605469 C 16.675781 -7.605469 13.117188 -10.886719 13.117188 -15.140625 L 13.117188 -41.867188 L 3.90625 -41.867188 L 3.90625 -13.398438 C 3.90625 -5.511719 11.511719 0.558594 21.28125 0.558594 Z M 21.28125 0.558594 "/></g></g></g><g fill="#ffffff" fill-opacity="1"><g transform="translate(203.687922, 114.650193)"><g><path d="M 24.074219 0.558594 C 32.375 0.558594 39.5625 -4.117188 43.121094 -10.957031 L 35.167969 -15.070312 C 33.144531 -11.09375 29.027344 -8.441406 24.074219 -8.441406 C 17.027344 -8.441406 11.652344 -13.886719 11.652344 -20.933594 C 11.652344 -27.980469 17.027344 -33.421875 24.074219 -33.421875 C 29.027344 -33.421875 33.144531 -30.773438 35.167969 -26.792969 L 43.121094 -30.910156 C 39.5625 -37.75 32.375 -42.425781 24.074219 -42.425781 C 12.210938 -42.425781 2.582031 -32.796875 2.582031 -20.933594 C 2.582031 -9.070312 12.210938 0.558594 24.074219 0.558594 Z M 24.074219 0.558594 "/></g></g></g><g fill="#ffffff" fill-opacity="1"><g transform="translate(247.503306, 114.650193)"><g><path d="M 29.65625 -33.773438 L 29.65625 -41.867188 L 4.464844 -41.867188 L 4.464844 0 L 29.65625 0 L 29.65625 -8.09375 L 13.675781 -8.09375 L 13.675781 -16.886719 L 27.351562 -16.886719 L 27.351562 -24.980469 L 13.675781 -24.980469 L 13.675781 -33.773438 Z M 29.65625 -33.773438 "/></g></g></g><g fill="#ffffff" fill-opacity="1"><g transform="translate(278.899604, 114.650193)"><g><path d="M 13.328125 -8.164062 L 13.328125 -41.867188 L 4.117188 -41.867188 L 4.117188 0 L 27.214844 0 L 27.214844 -8.164062 Z M 13.328125 -8.164062 "/></g></g></g><g fill="#ffffff" fill-opacity="1"><g transform="translate(305.132889, 114.650193)"><g><path d="M 21.28125 0.558594 C 31.191406 0.558594 38.726562 -5.511719 38.726562 -13.398438 L 38.726562 -41.867188 L 29.515625 -41.867188 L 29.515625 -15.140625 C 29.515625 -10.886719 25.957031 -7.605469 21.28125 -7.605469 C 16.675781 -7.605469 13.117188 -10.886719 13.117188 -15.140625 L 13.117188 -41.867188 L 3.90625 -41.867188 L 3.90625 -13.398438 C 3.90625 -5.511719 11.511719 0.558594 21.28125 0.558594 Z M 21.28125 0.558594 "/></g></g></g></svg>